HIERARCHY
ROOT Hips
{
	OFFSET 0.000000 0.000000 0.000000
	CHANNELS 6 Xposition Yposition Zposition Zrotation Yrotation Xrotation 
	JOINT LHipJoint
	{
		OFFSET 0.000000 0.000000 0.000000
		CHANNELS 3 Zrotation Yrotation Xrotation
		JOINT LeftUpLeg
		{
			OFFSET 1.363060 -1.794630 0.839290
			CHANNELS 3 Zrotation Yrotation Xrotation
			JOINT LeftLeg
			{
				OFFSET 2.448110 -6.726130 0.000000
				CHANNELS 3 Zrotation Yrotation Xrotation
				JOINT LeftFoot
				{
					OFFSET 2.562200 -7.039590 0.000000
					CHANNELS 3 Zrotation Yrotation Xrotation
					JOINT LeftToeBase
					{
						OFFSET 0.157640 -0.433110 2.322550
						CHANNELS 3 Zrotation Yrotation Xrotation
						End Site
						{
							OFFSET 0.000000 0.000000 0.000000
						}
					}
				}
			}
		}
	}
	JOINT RHipJoint
	{
		OFFSET 0.000000 0.000000 0.000000
		CHANNELS 3 Zrotation Yrotation Xrotation
		JOINT RightUpLeg
		{
			OFFSET -1.305520 -1.794630 0.839290
			CHANNELS 3 Zrotation Yrotation Xrotation
			JOINT RightLeg
			{
				OFFSET -2.542530 -6.985550 0.000000
				CHANNELS 3 Zrotation Yrotation Xrotation
				JOINT RightFoot
				{
					OFFSET -2.568260 -7.056230 0.000000
					CHANNELS 3 Zrotation Yrotation Xrotation
					JOINT RightToeBase
					{
						OFFSET -0.164730 -0.452590 2.363150
						CHANNELS 3 Zrotation Yrotation Xrotation
						End Site
						{
							OFFSET 0.000000 0.000000 0.000000
						}
					}
				}
			}
		}
	}
	JOINT LowerBack
	{
		OFFSET 0.000000 0.000000 0.000000
		CHANNELS 3 Zrotation Yrotation Xrotation
		JOINT Spine
		{
			OFFSET 0.028270 2.035590 -0.193380
			CHANNELS 3 Zrotation Yrotation Xrotation
			JOINT Spine1
			{
				OFFSET 0.056720 2.048850 -0.042750
				CHANNELS 3 Zrotation Yrotation Xrotation
				JOINT Neck
				{
					OFFSET 0.000000 0.000000 0.000000
					CHANNELS 3 Zrotation Yrotation Xrotation
					JOINT Neck1
					{
						OFFSET -0.054170 1.746240 0.172020
						CHANNELS 3 Zrotation Yrotation Xrotation
						JOINT Head
						{
							OFFSET 0.104070 1.761360 -0.123970
							CHANNELS 3 Zrotation Yrotation Xrotation
							End Site
							{
								OFFSET 0.000000 0.000000 0.000000
							}
						}
					}
				}
				JOINT LeftShoulder
				{
					OFFSET 0.000000 0.000000 0.000000
					CHANNELS 3 Zrotation Yrotation Xrotation
					JOINT LeftArm
					{
						OFFSET 3.362410 1.200890 -0.311210
						CHANNELS 3 Zrotation Yrotation Xrotation
						JOINT LeftForeArm
						{
							OFFSET 4.983000 -0.000000 -0.000000
							CHANNELS 3 Zrotation Yrotation Xrotation
							JOINT LeftHand
							{
								OFFSET 3.483560 -0.000000 -0.000000
								CHANNELS 3 Zrotation Yrotation Xrotation
								JOINT LeftFingerBase
								{
									OFFSET 0.000000 0.000000 0.000000
									CHANNELS 3 Zrotation Yrotation Xrotation
									JOINT LeftHandIndex1
									{
										OFFSET 0.715260 -0.000000 -0.000000
										CHANNELS 3 Zrotation Yrotation Xrotation
										End Site
										{
											OFFSET 0.000000 0.000000 0.000000
										}
									}
								}
								JOINT LThumb
								{
									OFFSET 0.000000 0.000000 0.000000
									CHANNELS 3 Zrotation Yrotation Xrotation
									End Site
									{
										OFFSET 0.000000 0.000000 0.000000
									}
								}
							}
						}
					}
				}
				JOINT RightShoulder
				{
					OFFSET 0.000000 0.000000 0.000000
					CHANNELS 3 Zrotation Yrotation Xrotation
					JOINT RightArm
					{
						OFFSET -3.136600 1.374050 -0.404650
						CHANNELS 3 Zrotation Yrotation Xrotation
						JOINT RightForeArm
						{
							OFFSET -5.241900 -0.000000 -0.000000
							CHANNELS 3 Zrotation Yrotation Xrotation
							JOINT RightHand
							{
								OFFSET -3.444170 -0.000000 -0.000000
								CHANNELS 3 Zrotation Yrotation Xrotation
								JOINT RightFingerBase
								{
									OFFSET 0.000000 0.000000 0.000000
									CHANNELS 3 Zrotation Yrotation Xrotation
									JOINT RightHandIndex1
									{
										OFFSET -0.622530 -0.000000 -0.000000
										CHANNELS 3 Zrotation Yrotation Xrotation
										End Site
										{
											OFFSET 0.000000 0.000000 0.000000
										}
									}
								}
								JOINT RThumb
								{
									OFFSET 0.000000 0.000000 0.000000
									CHANNELS 3 Zrotation Yrotation Xrotation
									End Site
									{
										OFFSET 0.000000 0.000000 0.000000
									}
								}
							}
						}
					}
				}
			}
		}
	}
}
MOTION
Frames: 9
Frame Time: 0.008333
-2.984345 17.150713 0.308599 -94.202114 87.630613 -75.722355 -9.365783 1.370214 2.018945 -23.161069 5.214033 -38.410371 -3.838749 -0.864450 13.031174 1.131414 4.247792 -8.213937 0.126899 -0.000000 -28.162700 9.421825 -4.670521 0.166869 9.454523 -8.543868 -3.014741 2.482334 -1.189885 16.438277 0.888460 8.871887 10.763846 2.311800 0.000000 -77.161300 0.787350 0.120599 -2.835139 -0.465186 -0.028827 -3.313499 -5.110041 0.001793 0.675101 5.258485 -8.040857 -7.362827 -3.260870 -0.242929 -0.008986 0.000000 0.000000 0.000000 1.966882 13.943665 1.211544 -62.490726 6.961733 -6.598596 -179.724207 -85.423652 179.957864 10.043584 -2.691486 -0.269430 -0.231458 0.340225 0.000000 0.000000 0.000000 0.000000 0.000000 0.000000 0.000000 7.494541 -1.195301 -0.476333 60.214216 30.553256 27.752270 179.822420 87.716914 179.995173 -1.474722 6.233549 -0.088345 0.049332 -0.495831 -0.000000 0.000000 0.000000 0.000000 0.000000 0.000000 0.000000 
-2.795072 17.094979 0.296691 -95.161471 87.286046 -76.891075 -9.324141 1.394944 2.145130 -22.833836 4.771289 -38.532106 -3.705991 -0.764215 14.256258 1.271373 4.792942 -8.863122 0.057300 -0.000001 -23.103800 9.543161 -4.775218 0.079484 9.296123 -9.334071 -3.063736 2.426667 -1.336429 17.943495 0.929479 9.887700 11.234508 2.688300 -0.000000 -79.069801 0.479145 0.071130 -2.930571 -0.528187 -0.058131 -3.319321 -5.119346 -0.027863 0.736538 5.865784 -8.180121 -7.370245 -3.180985 -0.237527 -0.000103 0.000000 0.000000 0.000000 2.173938 13.941075 1.191372 -62.821332 7.509125 -6.820007 -179.732268 -85.407245 179.957474 10.100481 -2.699712 -0.271467 -0.228048 0.339090 0.000000 0.000000 0.000000 0.000000 0.000000 0.000000 0.000000 7.741157 -1.328193 -0.375124 59.944786 31.034904 28.566993 179.768093 86.818223 179.998108 -1.099681 6.533477 -0.069237 0.046342 -0.507682 -0.000000 0.000000 0.000000 0.000000 0.000000 0.000000 0.000000 
-2.606418 17.041372 0.286027 -95.630442 87.013223 -77.573387 -9.263494 1.424679 2.272702 -22.449802 4.198736 -38.699756 -3.546734 -0.619026 15.983782 1.443390 5.419581 -9.762951 -0.059800 -0.000000 -17.749800 9.713903 -4.862362 -0.021859 8.967567 -10.235363 -3.263207 2.345605 -1.493460 19.660965 0.968816 11.152514 11.837349 3.177600 0.000000 -80.854400 0.112591 0.008841 -3.014051 -0.604449 -0.095284 -3.323695 -5.136684 -0.065132 0.792293 6.483446 -8.293150 -7.371375 -3.101862 -0.232123 0.008853 0.000000 0.000000 0.000000 2.292526 13.952698 1.180094 -63.045020 7.963665 -7.002799 -179.742279 -85.463378 179.957340 10.139854 -2.698349 -0.272205 -0.224972 0.337242 0.000000 0.000000 0.000000 0.000000 0.000000 0.000000 0.000000 7.998716 -1.442608 -0.271216 59.740976 31.480962 29.344973 179.711800 85.986795 -179.998457 -0.655231 6.833722 -0.043541 0.041510 -0.519712 -0.000000 0.000000 0.000000 0.000000 0.000000 0.000000 0.000000 
-2.419312 16.990878 0.275628 -95.611089 86.807617 -77.784307 -9.192286 1.457975 2.383363 -22.050744 3.580385 -38.883443 -3.371662 -0.438127 18.104665 1.628384 6.056155 -10.834996 -0.224000 0.000000 -12.607000 9.926063 -4.928925 -0.137573 8.477157 -11.221744 -3.590773 2.236411 -1.657463 21.576233 0.996472 12.637470 12.615569 3.793900 -0.000000 -82.398300 -0.292448 -0.058937 -3.064994 -0.689273 -0.133784 -3.323508 -5.158792 -0.103509 0.838656 7.087841 -8.380651 -7.365678 -3.022136 -0.226588 0.017624 0.000000 0.000000 0.000000 2.306764 13.981307 1.177853 -63.168213 8.301474 -7.139691 -179.755128 -85.611969 179.957469 10.161514 -2.679053 -0.270745 -0.222221 0.334519 0.000000 0.000000 0.000000 0.000000 0.000000 0.000000 0.000000 8.235118 -1.536875 -0.169838 59.622205 31.873999 30.077374 179.654571 85.231975 -179.994502 -0.132160 7.112852 -0.009861 0.034351 -0.531255 -0.000000 0.000000 0.000000 0.000000 0.000000 0.000000 0.000000 
-2.234628 16.944439 0.264658 -95.003820 86.668575 -77.435502 -9.114182 1.496858 2.465145 -21.679828 2.980571 -39.024135 -3.192327 -0.237230 20.449132 1.811208 6.664728 -11.987089 -0.425500 0.000000 -8.138300 10.174258 -4.968244 -0.270111 7.827706 -12.269344 -4.025058 2.096296 -1.823766 23.674660 1.001727 14.295069 13.598035 4.550500 0.000000 -83.591200 -0.722665 -0.123882 -3.066545 -0.779588 -0.165938 -3.316398 -5.183166 -0.135311 0.872427 7.658534 -8.444711 -7.352742 -2.941001 -0.220848 0.026080 0.000000 0.000000 0.000000 2.209865 14.028295 1.184117 -63.202657 8.500283 -7.224016 -179.771692 -85.871571 179.957711 10.167879 -2.634129 -0.266488 -0.219779 0.330814 0.000000 0.000000 0.000000 0.000000 0.000000 0.000000 0.000000 8.424876 -1.609999 -0.075612 59.603650 32.195724 30.755129 179.597741 84.561331 -179.990025 0.477590 7.349891 0.032498 0.024425 -0.541597 -0.000000 0.000000 0.000000 0.000000 0.000000 0.000000 0.000000 
-2.052974 16.903095 0.251909 -93.770017 86.577097 -76.486159 -9.037238 1.540729 2.512552 -21.354548 2.453637 -39.077179 -3.019431 -0.033479 22.839314 1.980365 7.217548 -13.150761 -0.652000 0.000000 -4.625800 10.440667 -4.976794 -0.413116 7.067108 -13.309217 -4.538476 1.926549 -1.985740 25.909700 0.975073 16.009507 14.795427 5.438100 0.000000 -84.329200 -1.147180 -0.177328 -3.016935 -0.868866 -0.185660 -3.302661 -5.208248 -0.154480 0.891685 8.176946 -8.490222 -7.332853 -2.858902 -0.214952 0.034258 0.000000 0.000000 0.000000 1.989450 14.088711 1.196984 -63.160259 8.551873 -7.255191 -179.792556 -86.246209 179.958094 10.164309 -2.554938 -0.258735 -0.217689 0.325964 0.000000 0.000000 0.000000 0.000000 0.000000 0.000000 0.000000 8.550715 -1.663832 0.008911 59.685100 32.433295 31.371681 179.542341 83.979588 -179.985051 1.177012 7.526003 0.083533 0.011518 -0.549983 -0.000000 0.000000 0.000000 0.000000 0.000000 0.000000 0.000000 
-1.874826 16.867676 0.237312 -91.662723 86.546064 -74.690887 -8.951365 1.601643 2.528259 -21.126700 2.013961 -38.970278 -2.867071 0.155276 25.073695 2.135241 7.729866 -14.279074 -0.892900 0.000000 -2.130499 10.726702 -4.941754 -0.571035 6.180124 -14.333229 -5.129397 1.726418 -2.137941 28.277998 0.912424 17.703657 16.185505 6.448500 -0.000000 -84.541300 -1.579563 -0.212158 -2.913393 -0.960123 -0.184995 -3.282344 -5.234245 -0.153118 0.895924 8.637398 -8.520014 -7.306000 -2.776904 -0.208994 0.042241 0.000000 0.000000 0.000000 1.664604 14.162949 1.214507 -63.061541 8.440316 -7.227277 -179.818741 -86.747782 179.958545 10.158024 -2.436816 -0.247286 -0.215928 0.320035 0.000000 0.000000 0.000000 0.000000 0.000000 0.000000 0.000000 8.612978 -1.698262 0.081801 59.867036 32.571842 31.916507 179.489938 83.488584 -179.979630 1.966688 7.626537 0.142147 -0.004502 -0.555876 -0.000000 0.000000 0.000000 0.000000 0.000000 0.000000 0.000000 
-1.700222 16.838934 0.219806 -88.647476 86.546968 -71.998155 -8.864664 1.679945 2.517826 -20.990423 1.685140 -38.696362 -2.743249 0.318676 27.022913 2.274979 8.195618 -15.359523 -1.141400 0.000000 -0.586100 11.007762 -4.862870 -0.732004 5.241778 -15.264161 -5.786645 1.502577 -2.275215 30.729513 0.815093 19.207781 17.729912 7.521800 -0.000001 -84.177300 -1.990565 -0.222215 -2.773076 -1.047285 -0.160739 -3.258907 -5.261120 -0.128143 0.885885 9.032100 -8.538071 -7.272935 -2.696804 -0.203156 0.050369 0.000000 0.000000 0.000000 1.235559 14.243517 1.233331 -62.924769 8.173294 -7.143152 -179.850295 -87.365034 179.959001 10.158746 -2.274562 -0.232039 -0.214575 0.313025 0.000000 0.000000 0.000000 0.000000 0.000000 0.000000 0.000000 8.612435 -1.715376 0.142914 60.129662 32.604236 32.383666 179.441416 83.087711 -179.973861 2.837557 7.642603 0.206239 -0.023412 -0.558786 -0.000000 0.000000 0.000000 0.000000 0.000000 0.000000 0.000000 
-1.529076 16.817303 0.198925 -84.624943 86.566016 -68.296230 -8.780483 1.778724 2.489937 -20.947975 1.467056 -38.246479 -2.653515 0.450166 28.584631 2.403724 8.629527 -16.384627 178.606700 -0.000000 -0.135400 11.268039 -4.738253 -0.890729 4.293898 -16.067055 -6.513278 1.261012 -2.395235 33.240278 0.689822 20.379437 19.365278 8.574700 -0.000001 -83.244400 -2.375612 -0.204214 -2.610870 -1.129292 -0.110429 -3.235346 -5.289256 -0.077288 0.862565 9.361595 -8.546188 -7.233363 -2.620560 -0.197635 0.059237 0.000000 0.000000 0.000000 0.720266 14.322655 1.250245 -62.774077 7.763794 -7.005776 -179.887106 -88.083540 179.959379 10.176262 -2.066906 -0.212793 -0.213641 0.305105 0.000000 0.000000 0.000000 0.000000 0.000000 0.000000 0.000000 8.559682 -1.715964 0.192920 60.451235 32.526121 32.765915 179.397918 82.775020 -179.967879 3.774465 7.571426 0.272513 -0.044792 -0.558494 -0.000000 0.000000 0.000000 0.000000 0.000000 0.000000 0.000000 
